/* XPM */
static const char *const sample_xpm[] = {
/* columns rows colors chars-per-pixel */
"32 32 121 2 ",
"   c None",
".  c #EF0000",
"X  c #EF0A00",
"o  c #EF1300",
"O  c #EF2400",
"+  c #EF2B00",
"@  c #EF3000",
"#  c #F03500",
"$  c #F03D00",
"%  c #F04300",
"&  c #F04B00",
"*  c #F15202",
"=  c #F1550E",
"-  c #F15615",
";  c #F1571B",
":  c #F1581D",
">  c #F15A24",
",  c #F15D2B",
"<  c #F15F31",
"1  c #F16035",
"2  c #F1643D",
"3  c #F16741",
"4  c #F26945",
"5  c #F26C4A",
"6  c #F26F50",
"7  c #EF7257",
"8  c #F27355",
"9  c #F27559",
"0  c #F27C64",
"q  c #F2836D",
"w  c #F38672",
"e  c #F38B77",
"r  c #F38D7A",
"t  c #F4917F",
"y  c #0059BE",
"u  c #0061B7",
"i  c #0063BB",
"p  c #006CBB",
"a  c #0171BD",
"s  c #0D71BB",
"d  c #1473BC",
"f  c #1B74BE",
"g  c #2576BE",
"h  c #2A77BE",
"j  c #2D79BE",
"k  c #337ABE",
"l  c #387BBF",
"z  c #005DC4",
"x  c #0064C2",
"c  c #006BC4",
"v  c #006AC9",
"b  c #0072C4",
"n  c #0075CA",
"m  c #007ACC",
"M  c #257AC5",
"N  c #2B78C0",
"B  c #357AC0",
"V  c #3C7CC0",
"C  c #427FC1",
"Z  c #4480C0",
"A  c #4B83C2",
"S  c #5286C3",
"D  c #5D8BC5",
"F  c #658FC7",
"G  c #6C94C8",
"H  c #7296CA",
"J  c #7499CA",
"K  c #7C9CCC",
"L  c #F49686",
"P  c #F59D8E",
"I  c #F29E92",
"U  c #F5A194",
"Y  c #F5A699",
"T  c #F6AA9E",
"R  c #F5AFA6",
"E  c #F7B5AC",
"W  c #F8B8AF",
"Q  c #F2B6B0",
"!  c #F6BCB4",
"~  c #F7C0B9",
"^  c #F8C2BA",
"/  c #829ECC",
"(  c #86A1CD",
")  c #88A4CF",
"_  c #8BA7D0",
"`  c #8FA8D1",
"'  c #99B0D4",
"]  c #A0B4D7",
"[  c #AABDDB",
"{  c #AFC0DD",
"}  c #B5C4DE",
"|  c #B8C7E1",
" . c #BCC9E1",
".. c #F6C9C4",
"X. c #F8C8C2",
"o. c #F9CEC8",
"O. c #F9D1CB",
"+. c #FAD6D2",
"@. c #FAD9D5",
"#. c #FBDDDA",
"$. c #FBE2DE",
"%. c #C0CCE3",
"&. c #C7D2E5",
"*. c #C9D3E7",
"=. c #D4DCEA",
"-. c #D9DEEC",
";. c #DCE2EE",
":. c #DBE4F1",
">. c #F6E5E5",
",. c #FBE4E2",
"<. c #FCEDEC",
"1. c #E2E7F1",
"2. c #E5EAF2",
"3. c #EBEEF6",
"4. c #EDF1F7",
"5. c #F6F5F7",
"6. c #FDF4F3",
"7. c #FFF9F7",
"8. c #F3F5F9",
"9. c #F7F8FB",
"0. c #FEFEFE",
/* pixels */
"                                                                ",
"                      l p i i x x x i p V                       ",
"                k k c z c A J ( / G A c z c k                   ",
"              k n y S [ ;.4.5.0.0.9.3.;.[ A y n B               ",
"            j c p | 4.0.0.0.0.0.7.0.0.0.0.4.{ p c k             ",
"          M i D 1.0.0.0.0.0.6.I R 0.0.0.0.0.0.;.S c N           ",
"        M i G 8.0.0.0.0.0.#.9 . L 0.0.7.0.0.0.0.3.F x h         ",
"      d c S 8.0.9.0.0.0.,.; & * 5 $.0.0.0.0.0.0.0.3.S v j       ",
"      m p ;.0.9.0.0.0.7.e O 5 1 O E 0.@.#.0.0.0.9.0.=.p n       ",
"    d i ] 0.0.0.0.0.0.+.@ 2 > 1 % 0 E - E 0.0.0.0.0.0.' x f     ",
"    n d 3.0.0.0.0.0.7.! X 4 : > , = * + q 6.0.0.0.9.0.:.h c     ",
"  d c _ 0.0.0.0.6.L +.E . 4 : > > > , 1 + E 0.0.0.0.0.0.) v h   ",
"  d i &.0.0.0.0.t . E T o 3 > * * < > < * & +.0.0.0.0.0.| c p   ",
"  b p 2.0.0.0.~ . 3 1 9 = > > 9 3 % , > 2 $ 9 <.0.0.9.0.;.b p   ",
"  b V 9.0.0.6.3 * 1 ; * < & $ ^ 6.w $ 1 > 2 O U 0.0.9.0.3.C i   ",
"  b S 9.0.0.+.+ 2 > > > 2 & > #.0.6.r $ 3 , , # o.0.0.0.3.S c   ",
"  b S 9.0.0.! O 3 : < % 9 o...7.0.0.#.$ & < 3 # w 6.0.0.4.S c   ",
"  b B 8.0.0.W O 3 > , # T 0.0.0.0.0.<.L 2 ; < > % @.0.0.2.V c   ",
"  b p 1.0.0.~ O 3 , % 0 6.0.7.0.0.0.<.#.,.0 $ 5 O ! 0.0.=.a i   ",
"  d i  .0.0.#.+ 4 & > #.0.0.0.0.0.0.7.7.0.O.% 1 # ! 0.0.} c a   ",
"  d c ( 0.0.6.8 * & E 0.7.0.0.0.0.0.0.0.0.6.w % % ..0.0.K c j   ",
"    m p 1.0.0.~ . 0 <.0.0.0.0.0.0.0.0.7.0.0.Y . 9 >.0.=.p c     ",
"    d i _ 0.0.6.8 w 0.0.0.0.0.0.0.0.0.0.0.0.U . ! 0.0.) x h     ",
"      m i *.0.0.$.P 0.0.0.0.0.0.0.0.0.0.0.6.1 q 9.0.} i n       ",
"      d n h 1.0.0.<.6.0.0.0.0.0.0.0.0.0.0.! 7 <.0.-.d n B       ",
"        f c Z 1.0.0.0.0.0.0.0.0.0.0.0.0.<.Q <.0.-.l v h         ",
"          f c h &.0.0.0.0.0.0.0.0.0.0.0.6.0.0.%.s c N           ",
"            g b i _ :.0.0.0.0.0.0.0.0.0.0.:.( u n h             ",
"              h m i p K } ;.4.8.8.3.;.| K p i m h               ",
"                  d n c i p j A A h p i v b f                   ",
"                      f a a b c b b p a d                       ",
"                                                                "
};
